<svg width="45" height="46" viewBox="0 0 45 46" fill="none" xmlns="http://www.w3.org/2000/svg">
<rect y="0.5" width="45" height="45" fill="white"/>
<path d="M28.3438 20.25C28.3646 20.3333 28.375 20.4688 28.375 20.6562C28.375 21.7604 28.1667 22.8646 27.75 23.9688C27.3333 25.0521 26.7396 26.0521 25.9688 26.9688C25.2188 27.8646 24.2396 28.5938 23.0312 29.1562C21.8229 29.7188 20.4896 30 19.0312 30C17.1979 30 15.5208 29.5104 14 28.5312C14.2292 28.5521 14.4896 28.5625 14.7812 28.5625C16.3021 28.5625 17.6667 28.0938 18.875 27.1562C18.1458 27.1562 17.5 26.9479 16.9375 26.5312C16.3958 26.0938 16.0208 25.5521 15.8125 24.9062C16.0208 24.9271 16.2188 24.9375 16.4062 24.9375C16.6979 24.9375 16.9896 24.9062 17.2812 24.8438C16.5312 24.6771 15.9062 24.2917 15.4062 23.6875C14.9062 23.0833 14.6562 22.3958 14.6562 21.625V21.5625C15.1146 21.8333 15.6042 21.9792 16.125 22C15.1458 21.3333 14.6562 20.4167 14.6562 19.25C14.6562 18.6667 14.8125 18.1146 15.125 17.5938C15.9375 18.6146 16.9271 19.4271 18.0938 20.0312C19.2812 20.6354 20.5417 20.9688 21.875 21.0312C21.8333 20.7812 21.8125 20.5312 21.8125 20.2812C21.8125 19.3854 22.125 18.6146 22.75 17.9688C23.3958 17.3229 24.1667 17 25.0625 17C26.0208 17 26.8229 17.3438 27.4688 18.0312C28.2188 17.8854 28.9167 17.625 29.5625 17.25C29.3125 18.0208 28.8333 18.625 28.125 19.0625C28.75 18.9792 29.375 18.8021 30 18.5312C29.5417 19.1979 28.9896 19.7708 28.3438 20.25Z" fill="#1B3764"/>
</svg>
