<svg width="45" height="46" viewBox="0 0 45 46" fill="none" xmlns="http://www.w3.org/2000/svg">
<rect y="0.5" width="45" height="45" fill="white"/>
<path d="M18.125 28.5H15.2188V19.1562H18.125V28.5ZM17.875 17.375C17.5417 17.7083 17.1458 17.875 16.6875 17.875C16.2292 17.875 15.8333 17.7083 15.5 17.375C15.1667 17.0417 15 16.6458 15 16.1875C15 15.7292 15.1667 15.3333 15.5 15C15.8333 14.6667 16.2292 14.5 16.6875 14.5C17.1458 14.5 17.5417 14.6667 17.875 15C18.2083 15.3333 18.375 15.7292 18.375 16.1875C18.375 16.6458 18.2083 17.0417 17.875 17.375ZM29 28.5H26.0938V23.9375C26.0938 23.5833 26.0833 23.3021 26.0625 23.0938C26.0417 22.8646 25.9896 22.6146 25.9062 22.3438C25.8229 22.0521 25.6667 21.8333 25.4375 21.6875C25.2292 21.5417 24.9479 21.4688 24.5938 21.4688C23.9062 21.4688 23.4375 21.6875 23.1875 22.125C22.9583 22.5625 22.8438 23.1458 22.8438 23.875V28.5H19.9375V19.1562H22.75V20.4375H22.7812C22.9896 20.0208 23.3333 19.6667 23.8125 19.375C24.2917 19.0625 24.8646 18.9062 25.5312 18.9062C26.2396 18.9062 26.8229 19.0208 27.2812 19.25C27.7604 19.4583 28.1146 19.7812 28.3438 20.2188C28.5938 20.6354 28.7604 21.0938 28.8438 21.5938C28.9479 22.0938 29 22.6875 29 23.375V28.5Z" fill="#1B3764"/>
</svg>
